Coordinates
version=1
nRows=7
nColumns=40
inDegrees=yes

Units are S.I. units (second, meters, Newtons, ...)
If the header above contains a line with 'inDegrees', this indicates whether rotational values are in degrees (yes) or radians (no).

endheader
time	pelvis_tilt	pelvis_list	pelvis_rotation	pelvis_tx	pelvis_ty	pelvis_tz	hip_flexion_r	hip_adduction_r	hip_rotation_r	knee_angle_r	knee_angle_r_beta	ankle_angle_r	subtalar_angle_r	mtp_angle_r	hip_flexion_l	hip_adduction_l	hip_rotation_l	knee_angle_l	knee_angle_l_beta	ankle_angle_l	subtalar_angle_l	mtp_angle_l	lumbar_extension	lumbar_bending	lumbar_rotation	arm_flex_r	arm_add_r	arm_rot_r	elbow_flex_r	pro_sup_r	wrist_flex_r	wrist_dev_r	arm_flex_l	arm_add_l	arm_rot_l	elbow_flex_l	pro_sup_l	wrist_flex_l	wrist_dev_l
      1.43000000	     -0.29411745	      3.50658151	     10.12825915	     -1.79914517	      0.94183150	      0.23386196	     -2.21043177	     -8.49642368	    -14.63892539	     95.33157489	      1.66384986	     -0.97336906	      0.00000000	      0.00000000	     21.69534268	      3.13390722	     -2.00694233	     42.44758676	      0.74085015	     19.31749163	      0.00000000	      0.00000000	    -31.86029188	     -5.41174330	     -2.41118055	    -19.24464114	    -30.15277236	      0.95323682	     84.44312043	     88.43966119	      0.00000000	      0.00000000	     -2.86042879	    -23.61722722	     -2.44593176	    112.17399067	      1.40876485	      0.00000000	      0.00000000
      1.43500000	     -0.47107538	      3.28922074	     10.65894023	     -1.77736796	      0.93999077	      0.23246974	      0.22752177	     -8.86690366	    -14.96124316	     97.40663461	      1.70006649	     -0.02699572	      0.00000000	      0.00000000	     21.02243674	      2.79978076	     -1.50642885	     43.65665938	      0.76195245	     20.85049446	      0.00000000	      0.00000000	    -31.63398652	     -4.72539123	     -3.41058732	    -20.69624228	    -30.50617471	     -0.26188038	     85.06273671	     88.39524462	      0.00000000	      0.00000000	     -0.96286588	    -23.61569753	     -1.59901555	    112.17596857	      1.44507728	      0.00000000	      0.00000000
      1.44000000	     -0.63601263	      3.01761307	     11.10511384	     -1.75538685	      0.93845768	      0.23121902	      2.70748739	     -9.15599884	    -15.16436128	     99.20711057	      1.73149072	      0.88174862	      0.00000000	      0.00000000	     20.18346750	      2.34054203	     -1.07319618	     44.56447613	      0.77779684	     22.20068422	      0.00000000	      0.00000000	    -31.35512208	     -4.02669979	     -4.37959657	    -22.13741593	    -30.91462399	     -1.37039481	     85.84524210	     88.40799772	      0.00000000	      0.00000000	      0.77034123	    -23.62543720	     -0.86535734	    112.31137793	      1.41705853	      0.00000000	      0.00000000
      1.44500000	     -0.78405378	      2.69200937	     11.45600259	     -1.73317923	      0.93722532	      0.23011149	      5.21825184	     -9.35166228	    -15.25227235	    100.72576027	      1.75799616	      1.74627730	      0.00000000	      0.00000000	     19.16762447	      1.76108727	     -0.73461189	     45.16331327	      0.78824852	     23.35567707	      0.00000000	      0.00000000	    -31.04612252	     -3.31312960	     -5.25846247	    -23.66789051	    -31.31671879	     -2.54022040	     86.85586346	     88.38536439	      0.00000000	      0.00000000	      2.35193325	    -23.62139106	     -0.24501856	    112.61019980	      1.41612474	      0.00000000	      0.00000000
      1.45000000	     -0.90250055	      2.31950171	     11.70617494	     -1.71073291	      0.93629583	      0.22913635	      7.73299107	     -9.45133293	    -15.23968946	    101.95788670	      1.77950082	      2.56894224	      0.00000000	      0.00000000	     17.96308096	      1.07752822	     -0.49895156	     45.46068260	      0.79343859	     24.31098160	      0.00000000	      0.00000000	    -30.71661623	     -2.59384795	     -6.02114060	    -25.27572064	    -31.72804419	     -3.73877992	     88.04627368	     88.34732065	      0.00000000	      0.00000000	      3.83085291	    -23.62095351	      0.34315930	    113.02664202	      1.42951642	      0.00000000	      0.00000000
      1.45500000	     -1.00022881	      1.89311729	     11.85103403	     -1.68805896	      0.93563839	      0.22828890	     10.25472712	     -9.43678422	    -15.13434636	    102.90533105	      1.79603684	      3.34555322	      0.00000000	      0.00000000	     16.59762218	      0.29522072	     -0.37409786	     45.48962790	      0.79394378	     25.05700297	      0.00000000	      0.00000000	    -30.36637925	     -1.86322514	     -6.68816408	    -26.90687585	    -32.14154747	     -4.94444633	     89.35498526	     88.32165467	      0.00000000	      0.00000000	      5.15894883	    -23.61046011	      0.81561796	    113.60370665	      1.42872882	      0.00000000	      0.00000000
      1.46000000	     -1.07315966	      1.42167693	     11.89040686	     -1.66516988	      0.93524454	      0.22754626	     12.76340064	     -9.31466241	    -14.95446793	    103.56892432	      1.80761873	      4.05277686	      0.00000000	      0.00000000	     15.08194537	     -0.56206684	     -0.35124208	     45.28323736	      0.79034159	     25.59955344	      0.00000000	      0.00000000	    -30.00886936	     -1.12526168	     -7.25071394	    -28.55512470	    -32.56798675	     -6.14406844	     90.77018493	     88.29296573	      0.00000000	      0.00000000	      6.37155132	    -23.59456051	      1.21680764	    114.30632016	      1.42987572	      0.00000000	      0.00000000
